<svg aria-hidden="true" style="position: absolute; width: 0; height: 0; overflow: hidden;" version="1.1" xmlns="http://www.w3.org/2000/svg" xmlns:xlink="http://www.w3.org/1999/xlink">
<defs>
<symbol id="icon-burger" viewBox="0 0 64 64">
<path stroke-linejoin="round" stroke-linecap="round" stroke-miterlimit="4" stroke-width="5.7143" d="M4.571 32h54.857M4.571 13.714h54.857M4.571 50.286h54.857"></path>
</symbol>
<symbol id="icon-scroll" viewBox="0 0 64 64">
<path d="M32 64c17.673 0 32-14.327 32-32s-14.327-32-32-32c-17.673 0-32 14.327-32 32s14.327 32 32 32z"></path>
<path d="M33.097 34.161c-0.144 0.145-0.314 0.26-0.502 0.338s-0.39 0.119-0.594 0.119-0.406-0.040-0.594-0.119c-0.188-0.078-0.359-0.193-0.502-0.338l-7.071-7.086c-0.143-0.145-0.314-0.26-0.502-0.338s-0.39-0.119-0.594-0.119-0.406 0.040-0.594 0.119c-0.188 0.078-0.359 0.193-0.502 0.338-0.288 0.289-0.449 0.681-0.449 1.088s0.161 0.799 0.449 1.088l7.086 7.086c0.868 0.867 2.046 1.354 3.273 1.354s2.405-0.487 3.273-1.354l7.087-7.086c0.285-0.288 0.446-0.676 0.448-1.081 0.001-0.203-0.038-0.405-0.115-0.593s-0.19-0.359-0.333-0.503c-0.144-0.145-0.314-0.26-0.503-0.338s-0.39-0.119-0.594-0.119-0.406 0.040-0.594 0.119c-0.188 0.078-0.359 0.193-0.502 0.338l-7.071 7.086z"></path>
</symbol>
<symbol id="icon-close" viewBox="0 0 64 64">
<path stroke-linejoin="round" stroke-linecap="round" stroke-miterlimit="4" stroke-width="5.8182" d="M48 16l-32 32"></path>
<path stroke-linejoin="round" stroke-linecap="round" stroke-miterlimit="4" stroke-width="5.8182" d="M16 16l32 32"></path>
</symbol>
<symbol id="icon-spoon" viewBox="0 0 64 64">
<path d="M30.903 28.212c-1.565-1.9-2.353-4.232-2.353-6.564 0-8.648 10.362-17.284 20.724-17.284 5.721 0 10.362 4.642 10.362 10.364 0 10.364-8.635 20.728-17.292 20.728-2.331 0-4.663-0.788-6.563-2.354l-25.517 25.522c-1.349 1.349-3.54 1.349-4.89 0s-1.349-3.541 0-4.891l25.528-25.522z"></path>
</symbol>
<symbol id="icon-Coin" viewBox="0 0 64 64">
<path d="M32 5.333c-14.667 0-26.667 12-26.667 26.667s12 26.667 26.667 26.667c14.667 0 26.667-12 26.667-26.667s-12-26.667-26.667-26.667zM32 53.333c-11.733 0-21.333-9.6-21.333-21.333s9.6-21.333 21.333-21.333c11.733 0 21.333 9.6 21.333 21.333s-9.6 21.333-21.333 21.333z"></path>
<path d="M35.466 29.333h-6.933c-1.333 0-2.4-1.067-2.4-2.4s1.067-2.4 2.4-2.4h9.867c1.6 0 2.667-1.067 2.667-2.667s-1.067-2.667-2.667-2.667h-3.733v-2.4c0-1.6-1.067-2.667-2.667-2.667s-2.667 1.067-2.667 2.667v2.4h-0.8c-4.267 0-7.733 3.467-7.733 7.733s3.467 7.733 7.733 7.733h6.667c1.333 0 2.4 1.067 2.4 2.4s-1.067 2.4-2.4 2.4h-9.867c-1.6 0-2.667 1.067-2.667 2.667s1.067 2.667 2.667 2.667h4v2.4c0 1.6 1.067 2.667 2.667 2.667s2.667-1.067 2.667-2.667v-2.4h0.8c4.267 0 7.733-3.467 7.733-7.733s-3.467-7.733-7.733-7.733z"></path>
</symbol>
<symbol id="icon-chocolate" viewBox="0 0 64 64">
<path d="M27.644 4.826l15.054 15.072 0.16-0.16c0.315-0.309 0.738-0.484 1.179-0.488s0.867 0.161 1.189 0.462l1.746 1.746c0.61 0.61 0.63 1.54 0.166 2.188l-0.008 0.014-0.286 0.384 12.32 12.32c1.1 1.1 1.1 2.86 0 3.96l-18.86 18.86c-1.1 1.1-2.86 1.1-3.96 0l-8.894-8.894c-0.148 0.186-0.333 0.339-0.544 0.448s-0.443 0.173-0.68 0.186c-0.237 0.013-0.475-0.024-0.697-0.108s-0.423-0.216-0.591-0.384l-5.2-5.2c-0.309-0.315-0.484-0.738-0.488-1.179s0.161-0.867 0.462-1.189l0.012-0.014 0.154-0.152-15.054-15.054c-1.1-1.1-1.1-2.86 0-3.96l18.86-18.86c1.1-1.1 2.86-1.1 3.96 0v0.002zM40.808 21.786l-3.512-3.51c-0.11-0.114-0.242-0.204-0.388-0.266s-0.303-0.094-0.462-0.094c-0.159 0-0.315 0.032-0.461 0.094s-0.278 0.152-0.389 0.266l-7.16 7.16c-0.113 0.113-0.203 0.247-0.265 0.394s-0.093 0.306-0.093 0.466 0.032 0.318 0.093 0.466c0.061 0.148 0.151 0.282 0.265 0.394l3.498 3.498 1.22-1.22-3.13-3.13 6.42-6.44 3.138 3.148 1.226-1.226zM30.656 31.93l-3.508-3.508c-0.11-0.114-0.242-0.204-0.388-0.266s-0.303-0.094-0.462-0.094c-0.159 0-0.315 0.032-0.461 0.094s-0.278 0.152-0.389 0.266l-7.18 7.18c-0.48 0.46-0.48 1.22 0 1.7l3.504 3.504 1.232-1.232-3.14-3.128 6.44-6.42 3.128 3.126 1.224-1.222zM17.644 16.386l7.16 7.16c0.48 0.48 1.24 0.48 1.7-0.020l7.16-7.16c0.114-0.108 0.204-0.239 0.266-0.383s0.094-0.3 0.094-0.457h0.020c0-0.3-0.12-0.62-0.36-0.86l-7.16-7.16c-0.112-0.114-0.246-0.204-0.394-0.266s-0.306-0.093-0.466-0.093c-0.16 0-0.318 0.032-0.466 0.093s-0.281 0.152-0.394 0.266l-7.16 7.18c-0.48 0.46-0.48 1.22 0 1.7zM7.504 26.526l7.16 7.16c0.48 0.48 1.24 0.48 1.7 0l7.16-7.16c0.116-0.111 0.208-0.244 0.27-0.392s0.093-0.307 0.090-0.468h0.020c0-0.32-0.12-0.62-0.36-0.86l-7.16-7.16c-0.11-0.114-0.242-0.204-0.389-0.266s-0.303-0.094-0.462-0.094c-0.159 0-0.316 0.032-0.462 0.094s-0.278 0.152-0.389 0.266l-7.18 7.18c-0.48 0.46-0.48 1.22 0 1.7zM21.37 44.034l4.724 4.726 19.272-26.080-1.31-1.31-22.686 22.664z"></path>
<path d="M27.644 4.826l15.054 15.072 0.16-0.16c0.315-0.309 0.738-0.484 1.179-0.488s0.867 0.161 1.189 0.462l1.746 1.746c0.61 0.61 0.63 1.54 0.166 2.188l-0.008 0.014-0.286 0.384 12.32 12.32c1.1 1.1 1.1 2.86 0 3.96l-18.86 18.86c-1.1 1.1-2.86 1.1-3.96 0l-8.894-8.894c-0.148 0.186-0.333 0.339-0.544 0.448s-0.443 0.173-0.68 0.186c-0.237 0.013-0.475-0.024-0.697-0.108s-0.423-0.216-0.591-0.384l-5.2-5.2c-0.309-0.315-0.484-0.738-0.488-1.179s0.161-0.867 0.462-1.189l0.012-0.014 0.154-0.152-15.054-15.054c-1.1-1.1-1.1-2.86 0-3.96l18.86-18.86c1.1-1.1 2.86-1.1 3.96 0v0.002zM40.808 21.786l-3.512-3.51c-0.11-0.114-0.242-0.204-0.388-0.266s-0.303-0.094-0.462-0.094c-0.159 0-0.315 0.032-0.461 0.094s-0.278 0.152-0.389 0.266l-7.16 7.16c-0.113 0.113-0.203 0.247-0.265 0.394s-0.093 0.306-0.093 0.466 0.032 0.318 0.093 0.466c0.061 0.148 0.151 0.282 0.265 0.394l3.498 3.498 1.22-1.22-3.13-3.13 6.42-6.44 3.138 3.148 1.226-1.226zM30.656 31.93l-3.508-3.508c-0.11-0.114-0.242-0.204-0.388-0.266s-0.303-0.094-0.462-0.094c-0.159 0-0.315 0.032-0.461 0.094s-0.278 0.152-0.389 0.266l-7.18 7.18c-0.48 0.46-0.48 1.22 0 1.7l3.504 3.504 1.232-1.232-3.14-3.128 6.44-6.42 3.128 3.126 1.224-1.222zM17.644 16.386l7.16 7.16c0.48 0.48 1.24 0.48 1.7-0.020l7.16-7.16c0.114-0.108 0.204-0.239 0.266-0.383s0.094-0.3 0.094-0.457h0.020c0-0.3-0.12-0.62-0.36-0.86l-7.16-7.16c-0.112-0.114-0.246-0.204-0.394-0.266s-0.306-0.093-0.466-0.093c-0.16 0-0.318 0.032-0.466 0.093s-0.281 0.152-0.394 0.266l-7.16 7.18c-0.48 0.46-0.48 1.22 0 1.7zM7.504 26.526l7.16 7.16c0.48 0.48 1.24 0.48 1.7 0l7.16-7.16c0.116-0.111 0.208-0.244 0.27-0.392s0.093-0.307 0.090-0.468h0.020c0-0.32-0.12-0.62-0.36-0.86l-7.16-7.16c-0.11-0.114-0.242-0.204-0.389-0.266s-0.303-0.094-0.462-0.094c-0.159 0-0.316 0.032-0.462 0.094s-0.278 0.152-0.389 0.266l-7.18 7.18c-0.48 0.46-0.48 1.22 0 1.7zM21.37 44.034l4.724 4.726 19.272-26.080-1.31-1.31-22.686 22.664z"></path>
</symbol>
<symbol id="icon-twitter" viewBox="0 0 64 64">
<path stroke-linejoin="round" stroke-linecap="round" stroke-miterlimit="4" stroke-width="5.3333" d="M61.333 8c-2.554 1.801-5.381 3.179-8.373 4.080-1.606-1.847-3.741-3.155-6.115-3.75s-4.873-0.445-7.16 0.428c-2.286 0.873-4.25 2.427-5.624 4.451s-2.094 4.423-2.061 6.87v2.667c-4.686 0.122-9.33-0.918-13.517-3.026s-9.122-7.126-11.816-10.963c0 0-9.333 25.908 14.667 36.575-5.492 3.728-12.034 5.597-18.667 5.333 24 13.333 53.333 0 53.333-30.667-0.002-0.743-0.074-1.484-0.213-2.213 2.722-2.684 4.642-6.073 5.547-9.787z"></path>
</symbol>
<symbol id="icon-instagram" viewBox="0 0 64 64">
<path stroke-linejoin="round" stroke-linecap="round" stroke-miterlimit="4" stroke-width="5.3333" d="M45.333 5.333h-26.667c-7.364 0-13.333 5.97-13.333 13.333v26.667c0 7.364 5.97 13.333 13.333 13.333h26.667c7.364 0 13.333-5.97 13.333-13.333v-26.667c0-7.364-5.97-13.333-13.333-13.333z"></path>
<path stroke-linejoin="round" stroke-linecap="round" stroke-miterlimit="4" stroke-width="5.3333" d="M42.667 30.32c0.329 2.219-0.050 4.486-1.083 6.477s-2.669 3.606-4.673 4.615c-2.004 1.009-4.275 1.36-6.49 1.003s-4.261-1.402-5.848-2.989-2.632-3.633-2.989-5.848c-0.356-2.215-0.005-4.486 1.003-6.49s2.624-3.639 4.615-4.672 4.258-1.412 6.477-1.083c2.264 0.336 4.359 1.391 5.978 3.009s2.673 3.714 3.009 5.978z"></path>
<path stroke-linejoin="round" stroke-linecap="round" stroke-miterlimit="4" stroke-width="5.3333" d="M46.667 17.333h0.027"></path>
</symbol>
<symbol id="icon-logochocolate" viewBox="0 0 64 64">
<path d="M7.888 40.151l21.554-34.849 1.28-1.348 16.471 10.982 0.113 6.627 4.020 6.559-17.759 28.153-25.678-16.125z"></path>
<path stroke-linejoin="round" stroke-linecap="round" stroke-miterlimit="4" stroke-width="5.3333" d="M43.269 47.759l-28.371-17.728M22.722 17.197l28.371 17.728M21.26 51.729l23.471-38.501M54.353 29.578c-6.079-3.799-8.467-6.768-4.555-13.185l-19.252-12.030-23.471 38.501 28.371 17.728 18.907-31.014z"></path>
</symbol>
</defs>
</svg>
