<svg aria-hidden="true" style="position: absolute; width: 0; height: 0; overflow: hidden;" version="1.1" xmlns="http://www.w3.org/2000/svg" xmlns:xlink="http://www.w3.org/1999/xlink">
<defs>
<symbol id="icon-spoon" viewBox="0 0 64 64">
<path d="M30.746 27.671c-1.789-2.171-2.689-4.837-2.689-7.502 0-9.883 11.843-19.754 23.685-19.754 6.538 0 11.843 5.305 11.843 11.845 0 11.845-9.869 23.689-19.762 23.689-2.664 0-5.329-0.901-7.5-2.69l-29.162 29.168c-1.542 1.542-4.046 1.542-5.588 0s-1.542-4.047 0-5.589l29.174-29.168z"></path>
</symbol>
<symbol id="icon-burger" viewBox="0 0 90 64">
<path stroke-linejoin="round" stroke-linecap="round" stroke-miterlimit="4" stroke-width="8" d="M6.4 32h76.8M6.4 6.4h76.8M6.4 57.6h76.8"></path>
</symbol>
<symbol id="icon-scroll" viewBox="0 0 112 64">
<path d="M61.21 42.267c-0.682 0.687-1.493 1.233-2.386 1.605s-1.852 0.564-2.82 0.564-1.927-0.192-2.82-0.564c-0.894-0.372-1.705-0.918-2.386-1.605l-33.587-33.66c-0.682-0.687-1.493-1.233-2.386-1.605s-1.852-0.564-2.82-0.564-1.927 0.192-2.82 0.564c-0.894 0.372-1.705 0.918-2.386 1.605-1.366 1.374-2.133 3.233-2.133 5.17s0.767 3.796 2.133 5.17l33.66 33.66c4.125 4.12 9.717 6.434 15.547 6.434s11.422-2.314 15.547-6.434l33.66-33.66c1.354-1.366 2.118-3.21 2.126-5.133 0.006-0.965-0.179-1.922-0.545-2.815s-0.902-1.706-1.582-2.391c-0.682-0.687-1.493-1.233-2.387-1.605s-1.852-0.564-2.82-0.564-1.926 0.192-2.82 0.564c-0.894 0.372-1.705 0.918-2.386 1.605l-33.587 33.66z"></path>
</symbol>
<symbol id="icon-close" viewBox="0 0 64 64">
<path stroke-linejoin="round" stroke-linecap="round" stroke-miterlimit="4" stroke-width="5.8182" d="M48 16l-32 32"></path>
<path stroke-linejoin="round" stroke-linecap="round" stroke-miterlimit="4" stroke-width="5.8182" d="M16 16l32 32"></path>
</symbol>
<symbol id="icon-coin" viewBox="0 0 64 64">
<path d="M32 1.524c-16.762 0-30.476 13.714-30.476 30.476s13.714 30.476 30.476 30.476c16.762 0 30.476-13.714 30.476-30.476s-13.714-30.476-30.476-30.476zM32 56.381c-13.409 0-24.381-10.971-24.381-24.381s10.971-24.381 24.381-24.381c13.41 0 24.381 10.971 24.381 24.381s-10.971 24.381-24.381 24.381z"></path>
<path d="M35.962 28.952h-7.924c-1.524 0-2.743-1.219-2.743-2.743s1.219-2.743 2.743-2.743h11.276c1.829 0 3.048-1.219 3.048-3.048s-1.219-3.048-3.048-3.048h-4.267v-2.743c0-1.829-1.219-3.048-3.048-3.048s-3.048 1.219-3.048 3.048v2.743h-0.914c-4.876 0-8.838 3.962-8.838 8.838s3.962 8.838 8.838 8.838h7.619c1.524 0 2.743 1.219 2.743 2.743s-1.219 2.743-2.743 2.743h-11.276c-1.829 0-3.048 1.219-3.048 3.048s1.219 3.048 3.048 3.048h4.571v2.743c0 1.829 1.219 3.048 3.048 3.048s3.048-1.219 3.048-3.048v-2.743h0.914c4.876 0 8.838-3.962 8.838-8.838s-3.962-8.838-8.838-8.838z"></path>
</symbol>
<symbol id="icon-chocolate" viewBox="0 0 62 64">
<path d="M26.090 0.911l16.611 16.631 0.177-0.177c0.348-0.341 0.814-0.534 1.301-0.539s0.957 0.177 1.312 0.51l1.927 1.927c0.673 0.673 0.695 1.699 0.183 2.414l-0.009 0.015-0.316 0.424 13.595 13.595c1.214 1.214 1.214 3.156 0 4.37l-20.811 20.811c-1.214 1.214-3.156 1.214-4.37 0l-9.814-9.814c-0.163 0.205-0.368 0.374-0.601 0.495s-0.488 0.191-0.75 0.205c-0.262 0.015-0.524-0.026-0.769-0.12s-0.467-0.238-0.652-0.424l-5.738-5.738c-0.341-0.348-0.534-0.814-0.539-1.301s0.177-0.957 0.51-1.312l0.013-0.015 0.17-0.168-16.611-16.611c-1.214-1.214-1.214-3.156 0-4.37l20.811-20.811c1.214-1.214 3.156-1.214 4.37 0v0.002zM40.616 19.626l-3.875-3.873c-0.122-0.126-0.267-0.225-0.429-0.294s-0.334-0.103-0.509-0.103c-0.175 0-0.348 0.035-0.509 0.103s-0.307 0.168-0.429 0.294l-7.901 7.901c-0.125 0.124-0.224 0.272-0.292 0.435s-0.103 0.338-0.103 0.514 0.035 0.351 0.103 0.514c0.068 0.163 0.167 0.311 0.292 0.435l3.86 3.86 1.346-1.346-3.454-3.454 7.084-7.106 3.463 3.474 1.353-1.353zM29.413 30.819l-3.871-3.871c-0.122-0.126-0.267-0.226-0.429-0.294s-0.334-0.103-0.509-0.103c-0.175 0-0.348 0.035-0.509 0.103s-0.307 0.168-0.429 0.294l-7.923 7.923c-0.53 0.508-0.53 1.346 0 1.876l3.866 3.867 1.359-1.359-3.465-3.452 7.106-7.084 3.452 3.449 1.351-1.348zM15.056 13.667l7.901 7.901c0.53 0.53 1.368 0.53 1.876-0.022l7.901-7.901c0.126-0.12 0.226-0.263 0.294-0.423s0.103-0.331 0.103-0.504h0.022c0-0.331-0.132-0.684-0.397-0.949l-7.901-7.901c-0.124-0.125-0.272-0.225-0.435-0.293s-0.338-0.103-0.514-0.103c-0.177 0-0.351 0.035-0.514 0.103s-0.311 0.168-0.435 0.293l-7.901 7.923c-0.53 0.508-0.53 1.346 0 1.876zM3.866 24.856l7.901 7.901c0.53 0.53 1.368 0.53 1.876 0l7.901-7.901c0.128-0.122 0.23-0.269 0.298-0.433s0.102-0.339 0.099-0.516h0.022c0-0.353-0.132-0.684-0.397-0.949l-7.901-7.901c-0.122-0.126-0.268-0.225-0.429-0.294s-0.334-0.103-0.509-0.103c-0.175 0-0.348 0.035-0.509 0.103s-0.307 0.168-0.429 0.294l-7.923 7.923c-0.53 0.508-0.53 1.346 0 1.876zM19.167 44.175l5.213 5.215 21.266-28.778-1.446-1.445-25.033 25.009z"></path>
<path d="M26.090 0.911l16.611 16.631 0.177-0.177c0.348-0.341 0.814-0.534 1.301-0.539s0.957 0.177 1.312 0.51l1.927 1.927c0.673 0.673 0.695 1.699 0.183 2.414l-0.009 0.015-0.316 0.424 13.595 13.595c1.214 1.214 1.214 3.156 0 4.37l-20.811 20.811c-1.214 1.214-3.156 1.214-4.37 0l-9.814-9.814c-0.163 0.205-0.368 0.374-0.601 0.495s-0.488 0.191-0.75 0.205c-0.262 0.015-0.524-0.026-0.769-0.12s-0.467-0.238-0.652-0.424l-5.738-5.738c-0.341-0.348-0.534-0.814-0.539-1.301s0.177-0.957 0.51-1.312l0.013-0.015 0.17-0.168-16.611-16.611c-1.214-1.214-1.214-3.156 0-4.37l20.811-20.811c1.214-1.214 3.156-1.214 4.37 0v0.002zM40.616 19.626l-3.875-3.873c-0.122-0.126-0.267-0.225-0.429-0.294s-0.334-0.103-0.509-0.103c-0.175 0-0.348 0.035-0.509 0.103s-0.307 0.168-0.429 0.294l-7.901 7.901c-0.125 0.124-0.224 0.272-0.292 0.435s-0.103 0.338-0.103 0.514 0.035 0.351 0.103 0.514c0.068 0.163 0.167 0.311 0.292 0.435l3.86 3.86 1.346-1.346-3.454-3.454 7.084-7.106 3.463 3.474 1.353-1.353zM29.413 30.819l-3.871-3.871c-0.122-0.126-0.267-0.226-0.429-0.294s-0.334-0.103-0.509-0.103c-0.175 0-0.348 0.035-0.509 0.103s-0.307 0.168-0.429 0.294l-7.923 7.923c-0.53 0.508-0.53 1.346 0 1.876l3.866 3.867 1.359-1.359-3.465-3.452 7.106-7.084 3.452 3.449 1.351-1.348zM15.056 13.667l7.901 7.901c0.53 0.53 1.368 0.53 1.876-0.022l7.901-7.901c0.126-0.12 0.226-0.263 0.294-0.423s0.103-0.331 0.103-0.504h0.022c0-0.331-0.132-0.684-0.397-0.949l-7.901-7.901c-0.124-0.125-0.272-0.225-0.435-0.293s-0.338-0.103-0.514-0.103c-0.177 0-0.351 0.035-0.514 0.103s-0.311 0.168-0.435 0.293l-7.901 7.923c-0.53 0.508-0.53 1.346 0 1.876zM3.866 24.856l7.901 7.901c0.53 0.53 1.368 0.53 1.876 0l7.901-7.901c0.128-0.122 0.23-0.269 0.298-0.433s0.102-0.339 0.099-0.516h0.022c0-0.353-0.132-0.684-0.397-0.949l-7.901-7.901c-0.122-0.126-0.268-0.225-0.429-0.294s-0.334-0.103-0.509-0.103c-0.175 0-0.348 0.035-0.509 0.103s-0.307 0.168-0.429 0.294l-7.923 7.923c-0.53 0.508-0.53 1.346 0 1.876zM19.167 44.175l5.213 5.215 21.266-28.778-1.446-1.445-25.033 25.009z"></path>
</symbol>
<symbol id="icon-twitter" viewBox="0 0 64 64">
<path stroke-linejoin="round" stroke-linecap="round" stroke-miterlimit="4" stroke-width="5.3333" d="M61.333 8c-2.554 1.801-5.381 3.179-8.373 4.080-1.606-1.847-3.741-3.155-6.115-3.75s-4.873-0.445-7.16 0.428c-2.286 0.873-4.25 2.427-5.624 4.451s-2.094 4.423-2.061 6.87v2.667c-4.686 0.122-9.33-0.918-13.517-3.026s-9.122-7.126-11.816-10.963c0 0-9.333 25.908 14.667 36.575-5.492 3.728-12.034 5.597-18.667 5.333 24 13.333 53.333 0 53.333-30.667-0.002-0.743-0.074-1.484-0.213-2.213 2.722-2.684 4.642-6.073 5.547-9.787z"></path>
</symbol>
<symbol id="icon-instagram" viewBox="0 0 64 64">
<path stroke-linejoin="round" stroke-linecap="round" stroke-miterlimit="4" stroke-width="5.3333" d="M45.333 5.333h-26.667c-7.364 0-13.333 5.97-13.333 13.333v26.667c0 7.364 5.97 13.333 13.333 13.333h26.667c7.364 0 13.333-5.97 13.333-13.333v-26.667c0-7.364-5.97-13.333-13.333-13.333z"></path>
<path stroke-linejoin="round" stroke-linecap="round" stroke-miterlimit="4" stroke-width="5.3333" d="M42.667 30.32c0.329 2.219-0.050 4.486-1.083 6.477s-2.669 3.606-4.673 4.615c-2.004 1.009-4.275 1.36-6.49 1.003s-4.261-1.402-5.848-2.989-2.632-3.633-2.989-5.848c-0.356-2.215-0.005-4.486 1.003-6.49s2.624-3.639 4.615-4.672 4.258-1.412 6.477-1.083c2.264 0.336 4.359 1.391 5.978 3.009s2.673 3.714 3.009 5.978z"></path>
<path stroke-linejoin="round" stroke-linecap="round" stroke-miterlimit="4" stroke-width="5.3333" d="M46.667 17.333h0.027"></path>
</symbol>
<symbol id="icon-logochocolate" viewBox="0 0 64 64">
<path d="M7.888 40.151l21.554-34.849 1.28-1.348 16.471 10.982 0.113 6.627 4.020 6.559-17.759 28.153-25.678-16.125z"></path>
<path stroke-linejoin="round" stroke-linecap="round" stroke-miterlimit="4" stroke-width="5.3333" d="M43.269 47.759l-28.371-17.728M22.722 17.197l28.371 17.728M21.26 51.729l23.471-38.501M54.353 29.578c-6.079-3.799-8.467-6.768-4.555-13.185l-19.252-12.030-23.471 38.501 28.371 17.728 18.907-31.014z"></path>
</symbol>
</defs>
</svg>
